<svg width="279" height="259" viewBox="0 0 279 259" fill="none" xmlns="http://www.w3.org/2000/svg">
<ellipse cx="139.5" cy="129.5" rx="139.5" ry="129.5" fill="#050315"/>
<path d="M22.9091 94.1818V164H14.4545V94.1818H22.9091Z" fill="url(#paint0_linear_4_2)"/>
<path d="M88.6364 116H80.1818C79.6818 113.568 78.8068 111.432 77.5568 109.591C76.3295 107.75 74.8295 106.205 73.0568 104.955C71.3068 103.682 69.3636 102.727 67.2273 102.091C65.0909 101.455 62.8636 101.136 60.5455 101.136C56.3182 101.136 52.4886 102.205 49.0568 104.341C45.6477 106.477 42.9318 109.625 40.9091 113.784C38.9091 117.943 37.9091 123.045 37.9091 129.091C37.9091 135.136 38.9091 140.239 40.9091 144.398C42.9318 148.557 45.6477 151.705 49.0568 153.841C52.4886 155.977 56.3182 157.045 60.5455 157.045C62.8636 157.045 65.0909 156.727 67.2273 156.091C69.3636 155.455 71.3068 154.511 73.0568 153.261C74.8295 151.989 76.3295 150.432 77.5568 148.591C78.8068 146.727 79.6818 144.591 80.1818 142.182H88.6364C88 145.75 86.8409 148.943 85.1591 151.761C83.4773 154.58 81.3864 156.977 78.8864 158.955C76.3864 160.909 73.5795 162.398 70.4659 163.42C67.375 164.443 64.0682 164.955 60.5455 164.955C54.5909 164.955 49.2955 163.5 44.6591 160.591C40.0227 157.682 36.375 153.545 33.7159 148.182C31.0568 142.818 29.7273 136.455 29.7273 129.091C29.7273 121.727 31.0568 115.364 33.7159 110C36.375 104.636 40.0227 100.5 44.6591 97.5909C49.2955 94.6818 54.5909 93.2273 60.5455 93.2273C64.0682 93.2273 67.375 93.7386 70.4659 94.7614C73.5795 95.7841 76.3864 97.2841 78.8864 99.2614C81.3864 101.216 83.4773 103.602 85.1591 106.42C86.8409 109.216 88 112.409 88.6364 116Z" fill="url(#paint1_linear_4_2)"/>
<path d="M94.4545 164V94.1818H136.591V101.682H102.909V125.273H134.409V132.773H102.909V156.5H137.136V164H94.4545Z" fill="url(#paint2_linear_4_2)"/>
<path d="M164 164H149.636V117.455H164.636C169.152 117.455 173.015 118.386 176.227 120.25C179.439 122.098 181.902 124.758 183.614 128.227C185.326 131.682 186.182 135.818 186.182 140.636C186.182 145.485 185.318 149.659 183.591 153.159C181.864 156.644 179.348 159.326 176.045 161.205C172.742 163.068 168.727 164 164 164ZM155.273 159H163.636C167.485 159 170.674 158.258 173.205 156.773C175.735 155.288 177.621 153.174 178.864 150.432C180.106 147.689 180.727 144.424 180.727 140.636C180.727 136.879 180.114 133.644 178.886 130.932C177.659 128.205 175.826 126.114 173.386 124.659C170.947 123.189 167.909 122.455 164.273 122.455H155.273V159Z" fill="#89D5FB"/>
<path d="M196.636 164V117.455H224.727V122.455H202.273V138.182H223.273V143.182H202.273V159H225.091V164H196.636Z" fill="#89D5FB"/>
<path d="M236.545 117.455L250.364 156.636H250.909L264.727 117.455H270.636L253.545 164H247.727L230.636 117.455H236.545Z" fill="#89D5FB"/>
<defs>
<linearGradient id="paint0_linear_4_2" x1="19" y1="71" x2="19" y2="187" gradientUnits="userSpaceOnUse">
<stop stop-color="#0C0457"/>
<stop offset="1" stop-color="#0981BD"/>
</linearGradient>
<linearGradient id="paint1_linear_4_2" x1="24" y1="117.223" x2="94" y2="140.777" gradientUnits="userSpaceOnUse">
<stop offset="0.341346" stop-color="#0C0457"/>
<stop offset="1" stop-color="#09BD93"/>
</linearGradient>
<linearGradient id="paint2_linear_4_2" x1="86" y1="133.7" x2="144" y2="124.3" gradientUnits="userSpaceOnUse">
<stop stop-color="#0C0457"/>
<stop offset="1" stop-color="#09BDAE"/>
</linearGradient>
</defs>
</svg>
